<svg width="45" height="45" viewBox="0 0 45 45" fill="none" xmlns="http://www.w3.org/2000/svg">
<rect x="1.4458" y="1.14737" width="43" height="43" rx="6.5" fill="#6363DB"/>
<rect x="1.4458" y="1.14737" width="43" height="43" rx="6.5" stroke="#4F4FB9"/>
<path d="M22.6658 22.1274H28.3258V29.5274C27.5791 29.7807 26.7991 29.9807 25.9858 30.1274C25.1858 30.274 24.2725 30.3474 23.2458 30.3474C21.8325 30.3474 20.6258 30.0674 19.6258 29.5074C18.6391 28.9474 17.8858 28.1207 17.3658 27.0274C16.8591 25.934 16.6058 24.5874 16.6058 22.9874C16.6058 21.494 16.8925 20.2007 17.4658 19.1074C18.0525 18.014 18.8991 17.1674 20.0058 16.5674C21.1125 15.9674 22.4658 15.6674 24.0658 15.6674C24.8258 15.6674 25.5725 15.7474 26.3058 15.9074C27.0391 16.0674 27.7058 16.2807 28.3058 16.5474L27.3058 18.9674C26.8658 18.7407 26.3658 18.554 25.8058 18.4074C25.2458 18.2607 24.6591 18.1874 24.0458 18.1874C23.1658 18.1874 22.3991 18.3874 21.7458 18.7874C21.1058 19.1874 20.6058 19.754 20.2458 20.4874C19.8991 21.2074 19.7258 22.0607 19.7258 23.0474C19.7258 23.9807 19.8525 24.8074 20.1058 25.5274C20.3591 26.2474 20.7591 26.814 21.3058 27.2274C21.8525 27.6274 22.5658 27.8274 23.4458 27.8274C23.7391 27.8274 23.9925 27.8207 24.2058 27.8074C24.4325 27.7807 24.6391 27.754 24.8258 27.7274C25.0125 27.6874 25.1925 27.654 25.3658 27.6274V24.6474H22.6658V22.1274Z" fill="white"/>
</svg>
